<svg xmlns="http://www.w3.org/2000/svg" viewBox="0 0 512 512" fill="none">
  <rect width="512" height="512" rx="64" fill="#1f2937"/>
  <g fill="#f59e0b">
    <!-- Guitar body outline -->
    <ellipse cx="256" cy="290" rx="130" ry="145"/>
    <!-- Sound hole -->
    <circle cx="256" cy="320" r="48" fill="#1f2937"/>
    <!-- Guitar neck -->
    <rect x="230" y="90" width="52" height="160" rx="4"/>
  </g>
  <!-- Frets -->
  <rect x="230" y="115" width="52" height="4" fill="#1f2937"/>
  <rect x="230" y="140" width="52" height="4" fill="#1f2937"/>
  <rect x="230" y="165" width="52" height="4" fill="#1f2937"/>
  <rect x="230" y="190" width="52" height="4" fill="#1f2937"/>
  <rect x="230" y="215" width="52" height="4" fill="#1f2937"/>
  <!-- Strings -->
  <line x1="240" y1="100" x2="240" y2="420" stroke="#d1d5db" stroke-width="2"/>
  <line x1="248" y1="100" x2="248" y2="420" stroke="#d1d5db" stroke-width="2"/>
  <line x1="256" y1="100" x2="256" y2="420" stroke="#d1d5db" stroke-width="2"/>
  <line x1="264" y1="100" x2="264" y2="420" stroke="#d1d5db" stroke-width="2"/>
  <line x1="272" y1="100" x2="272" y2="420" stroke="#d1d5db" stroke-width="2"/>
  <!-- Bridge -->
  <rect x="215" y="405" width="82" height="10" rx="2" fill="#78716c"/>
  <!-- Headstock -->
  <rect x="226" y="65" width="60" height="30" rx="4" fill="#f59e0b"/>
  <!-- Tuning pegs -->
  <circle cx="236" cy="75" r="5" fill="#d1d5db"/>
  <circle cx="276" cy="75" r="5" fill="#d1d5db"/>
  <circle cx="236" cy="88" r="5" fill="#d1d5db"/>
  <circle cx="276" cy="88" r="5" fill="#d1d5db"/>
</svg>
